<?xml version="1.0" encoding="UTF-8"?><svg id="Layer_1" xmlns="http://www.w3.org/2000/svg" viewBox="0 0 160 160"><polygon points="156.18 14.02 80.86 14.02 64.13 43.01 101.79 108.24 156.18 14.02" fill="#00f0ff"/><polygon points="38.89 14.02 3.82 14.02 80 145.98 97.54 115.6 38.89 14.02" fill="#00f0ff"/><path d="M84.7,42.92v8.75h-7.64v8.29h7.18v8.32h-7.18v9.61h8.18v8.75h-19.55v-7.86h-6.52l-1.85,7.86h-10.86l11.53-43.72h26.7ZM65.69,51.08l-4.83,19.96h4.83v-19.96Z" fill="#fff"/><path d="M88.51,42.92h8.05c5.36,0,9,.21,10.9.62s3.45,1.47,4.65,3.17c1.2,1.7,1.8,4.41,1.8,8.14,0,3.4-.42,5.69-1.27,6.86-.85,1.17-2.51,1.87-5,2.11,2.25.56,3.76,1.31,4.54,2.24.77.94,1.26,1.8,1.44,2.58.19.78.28,2.94.28,6.47v11.53h-10.56v-14.53c0-2.34-.19-3.79-.55-4.35-.37-.56-1.34-.84-2.9-.84v19.71h-11.37v-43.72ZM99.88,50.4v9.72c1.28,0,2.17-.18,2.69-.53.51-.35.77-1.49.77-3.42v-2.4c0-1.39-.25-2.3-.74-2.73-.49-.43-1.4-.65-2.71-.65Z" fill="#fff"/></svg>